<svg xmlns="http://www.w3.org/2000/svg" enable-background="new 0 0 50 50" viewBox="0 0 50 50"><path d="M40.1 10.2c-.2-.6-2.3-7.3-2.8-7.6C36.2 1.7 31.1 1 25 1S13.8 1.7 12.7 2.5c-.5.5-2.5 6.6-2.9 7.8C16.9 11.3 34.5 11.2 40.1 10.2zM42.2 22.2c-.2-3.4-.7-6.7-1.6-10.1-2.5.5-7.3 1-16.3 1-4.2 0-10.8-.1-15-.7-.8 3.3-1.3 6.6-1.5 9.9C13.7 23.6 36.3 23.6 42.2 22.2zM9.5 38.3c.8 3 1.8 6 3.2 9 0 2.2 24.6 2.2 24.6 0 1.3-3 2.4-6 3.2-9-2.9.4-7.7.8-15.5.8C20.6 39.1 13.8 38.9 9.5 38.3zM25 25.2c-4.7 0-13.3-.2-17.2-1.1C7.7 28.2 8.1 32.3 9 36.3c6.8 1.1 25.1 1.1 31.9 0 .9-4.1 1.3-8.1 1.3-12.2C39.6 24.7 34.5 25.2 25 25.2z"/></svg>