<svg xmlns="http://www.w3.org/2000/svg" width="100" height="100" enable-background="new 0 0 100 100" viewBox="0 0 100 100"><path d="M53.97 8.068h-7.94c-.881 0-1.596-.688-1.596-1.534S45.148 5 46.03 5h7.94c.881 0 1.596.688 1.596 1.534S54.852 8.068 53.97 8.068zM57.308 27.588c-.47-6.922-1.93-13.703-3.015-18.001-.106.011-.214.016-.323.016h-7.94c-.109 0-.216-.005-.323-.016-1.085 4.298-2.545 11.079-3.015 18.001 0 0-5.192 6.863-5.192 10.482 0 2.368 0 50.477 0 50.477S37.594 95 41.715 95c4.119 0 12.451 0 16.57 0 4.12 0 4.215-6.453 4.215-6.453s0-48.108 0-50.477C62.5 34.451 57.308 27.588 57.308 27.588z"/></svg>