<svg xmlns="http://www.w3.org/2000/svg" width="128" height="128" viewBox="0 0 128 128"><path style="line-height:normal;text-indent:0;text-align:start;text-decoration-line:none;text-decoration-style:solid;text-decoration-color:#000;text-transform:none;block-progression:tb;white-space:normal;isolation:auto;mix-blend-mode:normal;solid-color:#000;solid-opacity:1" d="m 46.6993,946.55547 35.5546,0 c 0.5212,0 0.9043,0.3802 0.9043,0.8418 0,0.3131 -0.1849,0.5763 -0.4609,0.7207 -0.08,-0.05 -0.173,-0.077 -0.2676,-0.076 l -36.2949,0 c -0.2044,-0.1543 -0.3379,-0.3804 -0.3379,-0.6445 0,-0.4616 0.3812,-0.8418 0.9024,-0.8418 z m -0.379,2.6445 c 0.1227,0.024 0.2497,0.037 0.379,0.037 l 35.2304,0 0,2.4317 c -1e-4,0.1135 0.039,0.2237 0.1094,0.3125 l 4.7031,5.8906 -45.209,0 4.6778,-5.8906 c 0.071,-0.089 0.1094,-0.199 0.1093,-0.3125 z m -5.3203,9.6719 46.3164,0 0,65.12703 -46.3164,0 z m 23.2051,18.2129 c -1.2473,0 -2.5054,0.1566 -3.7422,0.4883 -4.9471,1.3268 -8.8132,5.1969 -10.1386,10.1484 -0.1719,0.6445 0.7949,0.9023 0.9668,0.2578 1.2335,-4.6082 4.8282,-8.2048 9.4316,-9.4394 4.6033,-1.2347 9.5128,0.082 12.8828,3.455 0.4712,0.4919 1.1989,-0.2358 0.707,-0.707 -2.716,-2.7187 -6.3653,-4.1946 -10.1074,-4.2031 z m 3.5039,3.7461 c -0.046,-3e-4 -0.091,0.01 -0.1347,0.018 l -11.1348,2.9843 c -0.2671,0.072 -0.4255,0.3463 -0.3535,0.6133 l 0.4707,1.7579 c 0.072,0.2671 0.3463,0.4255 0.6133,0.3535 l 11.1347,-2.9844 c 0.2672,-0.072 0.4255,-0.3463 0.3535,-0.6133 l -0.4707,-1.7578 c -0.058,-0.2172 -0.2537,-0.369 -0.4785,-0.3711 z m 13.7383,0.3906 c -0.046,-3e-4 -0.091,0.01 -0.1348,0.018 l -37.0781,9.9394 c -0.6878,0.1453 -0.4108,1.1821 0.2578,0.9649 l 37.0801,-9.9375 c 0.5697,-0.1463 0.4631,-0.9851 -0.125,-0.9844 z m -14.0977,0.7227 0.2129,0.791 -10.1679,2.7265 -0.2129,-0.7929 z m 12.5196,2.0136 c -0.046,-3e-4 -0.091,0.01 -0.1348,0.018 l -32.7656,8.7813 c -0.2671,0.072 -0.4255,0.3463 -0.3535,0.6133 l 1.3867,5.1738 c 0.072,0.2662 0.3449,0.4243 0.6113,0.3535 l 32.7676,-8.7832 c 0.2671,-0.072 0.4255,-0.3463 0.3535,-0.6133 l -1.3867,-5.1718 c -0.058,-0.2172 -0.2537,-0.3691 -0.4785,-0.3712 z m -0.3594,1.1114 1.1289,4.2089 -31.8008,8.5235 -1.1269,-4.2071 z m 4.4785,5.6386 c -0.045,5e-4 -0.09,0.01 -0.1328,0.02 l -37.0781,9.93753 c -0.6444,0.172 -0.3867,1.1386 0.2578,0.9668 l 37.0801,-9.93753 c 0.5831,-0.1391 0.4723,-0.9994 -0.127,-0.9863 z m -6.4238,3.8047 c -0.016,-10e-5 -0.033,5e-4 -0.049,0 -0.2191,0.011 -0.4053,0.1642 -0.459,0.377 -1.2336,4.6082 -4.8264,8.20483 -9.4297,9.43953 -4.6034,1.2346 -9.5128,-0.082 -12.8828,-3.4551 -0.4714,-0.4727 -1.1804,0.2343 -0.709,0.707 3.6214,3.6249 8.9024,5.0417 13.8496,3.7148 4.9472,-1.3268 8.8132,-5.1969 10.1387,-10.14843 0.089,-0.3107 -0.1362,-0.6226 -0.459,-0.6367 z m -7.1777,1.7852 c -0.046,-3e-4 -0.091,0.01 -0.1348,0.018 l -11.1348,2.9844 c -0.2662,0.072 -0.4243,0.34489 -0.3535,0.61129 l 0.4727,1.75784 c 0.072,0.2662 0.3449,0.4243 0.6113,0.3535 l 11.1348,-2.98443 c 0.2662,-0.071 0.4243,-0.3449 0.3535,-0.6113 l -0.4707,-1.7578 c -0.058,-0.2172 -0.2537,-0.369 -0.4785,-0.3711 z m -0.3594,1.1113 0.2129,0.793 -10.168,2.72653 -0.2129,-0.7929 z m -27.8633,27.58993 43.9687,0 -3.9804,2.6601 c -0.072,0.048 -0.1308,0.114 -0.1699,0.1914 l -0.754,1.5118 -34.1796,0 -0.7852,-1.5176 c -0.038,-0.075 -0.095,-0.1385 -0.1641,-0.1856 z" color="#000" enable-background="accumulate" font-family="sans-serif" font-weight="400" overflow="visible" transform="translate(0 -924.362)"/></svg>