<svg xmlns="http://www.w3.org/2000/svg" viewBox="0 0 64 64"><path style="fill: #FFFFFF;" d="M53.71,21.44A9.33,9.33,0,0,0,52.78,20v-.41c0-.42-.29-10.37-7.54-14.86A8.72,8.72,0,0,0,37.52,4a9,9,0,0,0-11.64.14,8.66,8.66,0,0,0-8,.6c-7.25,4.49-7.53,14.44-7.54,14.86V20a9.38,9.38,0,0,0-.94,1.44c-4,7.7.74,16.37.94,16.74l.31.55.63,0a18.89,18.89,0,0,0,1.94-.28,9.37,9.37,0,0,0-.82,2.94C11.41,50,18.87,56.3,19.19,56.56l.5.41.58-.28A21.35,21.35,0,0,0,24.2,54a21.09,21.09,0,0,0,7.05,7.87l.53.33.53-.33a21.32,21.32,0,0,0,6.89-7.58,22,22,0,0,0,3.6,2.42l.58.28.5-.41c.32-.26,7.79-6.53,6.83-15.21a9.37,9.37,0,0,0-.82-2.94,18.89,18.89,0,0,0,1.94.28l.63,0,.31-.55C53,37.81,57.68,29.14,53.71,21.44Zm-9.53-15C49.52,9.74,50.54,16.84,50.73,19c-1.56.69-6,2.37-10.47,1.31a9.16,9.16,0,0,0-1.35-2.52,14,14,0,0,0,1.86-6.87A9,9,0,0,0,39,5.61,6.73,6.73,0,0,1,44.18,6.43Zm-12.4,41c-1.72-1.25-7-5.62-7-11.8a7,7,0,0,1,1-3.67,21.58,21.58,0,0,0,5.43,5.18l.53.34.53-.34A21.63,21.63,0,0,0,37.73,32a7,7,0,0,1,1,3.67C38.77,41.81,33.49,46.18,31.78,47.43Zm-.53-22.64.53.33.53-.33a22,22,0,0,0,5.42-5.19,7,7,0,0,1,1,3.68c0,6.18-5.28,10.54-7,11.8-1.72-1.26-7-5.62-7-11.8a6.92,6.92,0,0,1,1-3.67A21.83,21.83,0,0,0,31.25,24.79Zm.53-20.88a7,7,0,0,1,7,7c0,6.19-5.28,10.55-7,11.81-1.72-1.26-7-5.62-7-11.81A7,7,0,0,1,31.78,3.91ZM18.89,6.43a6.72,6.72,0,0,1,5.55-.71,9,9,0,0,0-1.66,5.2,14.09,14.09,0,0,0,1.86,6.88,9,9,0,0,0-1.3,2.37c-4.61,1.34-9.38-.46-11-1.17C12.53,16.84,13.55,9.74,18.89,6.43ZM11.14,22.35A7.75,7.75,0,0,1,12,21a20.64,20.64,0,0,0,7.73,1.63,14.93,14.93,0,0,0,3.07-.33c0,.31,0,.62,0,.94a13.6,13.6,0,0,0,1.1,5.28l-.09,0a6.73,6.73,0,0,1-.32.73c-2.91,5.64-9.6,7.05-11.71,7.36C10.83,34.63,8.21,28,11.14,22.35ZM20,54.57c-1.58-1.5-6.33-6.6-5.62-13A7.39,7.39,0,0,1,16,37.64a17.19,17.19,0,0,0,7.1-4.46,9.11,9.11,0,0,0-.34,2.45,13.94,13.94,0,0,0,1.87,6.87A9,9,0,0,0,22.78,48a13.45,13.45,0,0,0,.64,4A20.79,20.79,0,0,1,20,54.57Zm11.81,5.21c-1.72-1.25-7-5.61-7-11.8a7,7,0,0,1,1-3.67,21.94,21.94,0,0,0,5.43,5.19l.53.33.53-.33a22,22,0,0,0,5.42-5.19,7,7,0,0,1,1,3.67C38.77,54.17,33.49,58.53,31.78,59.78ZM48.72,41.57c.7,6.38-4,11.49-5.62,13A20.67,20.67,0,0,1,40,52.35,13.39,13.39,0,0,0,40.77,48a9,9,0,0,0-1.86-5.48,14,14,0,0,0,1.86-6.87,8.81,8.81,0,0,0-.18-1.78,17.72,17.72,0,0,0,6.46,3.79A7.39,7.39,0,0,1,48.72,41.57Zm2.6-5c-2.12-.31-8.81-1.72-11.72-7.37L39.49,29h0a13.7,13.7,0,0,0,1.3-5.76,7.87,7.87,0,0,0,0-.84,15.33,15.33,0,0,0,2.58.22A20.67,20.67,0,0,0,51,21a7.2,7.2,0,0,1,.89,1.31C54.86,28,52.24,34.63,51.32,36.62Z" data-name="outline"/></svg>